<svg xmlns="http://www.w3.org/2000/svg" width="42.375" height="10.961" viewBox="0 0 42.375 10.961"><g fill="#FFF"><path d="M.17 5.44c-.003-.077-.005-.153-.005-.227 0-.535.084-1.06.252-1.576.41-1.266 1.26-2.23 2.55-2.895.808-.414 1.685-.62 2.63-.62.566 0 1.156.073 1.77.222C8.655.77 9.62 1.447 10.26 2.377c.074.14.11.262.11.363 0 .152-.085.26-.257.322l-.41.27c-.14.05-.263.076-.37.076-.18 0-.306-.072-.38-.217C8.227 2.48 7.48 2 6.71 1.75c-.5-.113-.93-.17-1.284-.17-.406 0-.717.074-.932.223-.35.207-.527.756-.527 1.646v3.99c0 .89.176 1.438.527 1.645.215.15.526.224.932.224.355 0 .783-.058 1.283-.17.77-.25 1.517-.73 2.243-1.442.075-.145.202-.218.38-.218.106 0 .23.025.37.076l.41.27c.172.062.258.17.258.322 0 .102-.036.223-.11.363-.64.93-1.605 1.608-2.895 2.034-.613.148-1.203.223-1.77.223-.945 0-1.822-.21-2.63-.627C1.674 9.48.826 8.518.416 7.252.25 6.736.165 6.21.165 5.67c0-.074.002-.15.005-.23zM14.508.643v5.115c0 .246.135.37.404.37h2.55c.288 0 .433-.15.433-.446V.572c0-.246.13-.37.393-.37h.99c.305 0 .457.134.457.4v9.667c0 .308-.13.462-.393.462H18.3c-.27 0-.405-.137-.405-.41V8.014c0-.293-.115-.44-.346-.44h-2.603c-.293 0-.44.175-.44.522v2.197c0 .293-.142.44-.427.44h-2.145c-.262 0-.393-.155-.393-.464V.606c0-.27.143-.404.428-.404h2.092c.298 0 .446.147.446.44zM24.305 9.432c.21.105.588.158 1.13.158.794-.03 1.4-.23 1.815-.6s.643-.96.682-1.773V.543c0-.227.11-.34.334-.34h1.166c.227 0 .34.107.34.322v6.3c-.055 1.397-.432 2.437-1.13 3.116s-1.77 1.02-3.212 1.02c-1.06 0-2.04-.24-2.947-.72-.906-.48-1.392-1.305-1.458-2.473V.607c0-.27.143-.404.428-.404h2.09c.298 0 .446.146.446.44v8.243c-.002.262.104.444.315.546zM34.57.414l3.34 3.86c.043.06.082.09.117.09s.066-.026.094-.077L40.81.49c.164-.19.357-.287.58-.287h.404c.305 0 .457.113.457.34v9.902c0 .19-.13.287-.392.287h-1.102c-.23 0-.346-.102-.346-.305V3.455c-.004-.062-.025-.094-.064-.094-.023 0-.053.013-.088.036l-2.836 4.008c-.04.03-.078.047-.117.047-.05 0-.102-.02-.152-.063l-3.006-3.37c-.03-.022-.057-.034-.076-.034-.03 0-.046.033-.046.1v6.428c0 .15-.143.224-.428.224H31.45c-.26 0-.392-.154-.392-.463V.608c0-.27.143-.404.428-.404h2.56c.202 0 .376.07.524.21z"/></g></svg>