<?xml version="1.0" encoding="utf-8"?>
<!-- Generator: Adobe Illustrator 14.0.0, SVG Export Plug-In . SVG Version: 6.00 Build 43363)  -->
<!DOCTYPE svg PUBLIC "-//W3C//DTD SVG 1.1//EN" "http://www.w3.org/Graphics/SVG/1.1/DTD/svg11.dtd">
<svg version="1.1" id="Layer_1" xmlns="http://www.w3.org/2000/svg" xmlns:xlink="http://www.w3.org/1999/xlink" x="0px" y="0px"
	 width="42.375px" height="10.961px" viewBox="0 0 42.375 10.961" enable-background="new 0 0 42.375 10.961" xml:space="preserve">
<g>
	<path fill="#FFFFFF" d="M0.17,5.441C0.167,5.363,0.165,5.287,0.165,5.213c0-0.535,0.084-1.061,0.252-1.576
		c0.41-1.266,1.26-2.23,2.549-2.895c0.809-0.414,1.686-0.621,2.631-0.621c0.566,0,1.156,0.074,1.77,0.223
		C8.655,0.77,9.62,1.447,10.26,2.377c0.074,0.141,0.111,0.262,0.111,0.363c0,0.152-0.086,0.26-0.258,0.322l-0.41,0.27
		C9.563,3.383,9.44,3.408,9.334,3.408c-0.18,0-0.307-0.072-0.381-0.217C8.227,2.48,7.479,2,6.709,1.75
		c-0.5-0.113-0.928-0.17-1.283-0.17c-0.406,0-0.717,0.074-0.932,0.223C4.143,2.01,3.967,2.559,3.967,3.449v3.99
		c0,0.891,0.176,1.439,0.527,1.646C4.709,9.234,5.02,9.309,5.426,9.309c0.355,0,0.783-0.057,1.283-0.17
		c0.77-0.25,1.518-0.73,2.244-1.441C9.028,7.553,9.155,7.48,9.334,7.48c0.105,0,0.229,0.025,0.369,0.076l0.41,0.27
		c0.172,0.062,0.258,0.17,0.258,0.322c0,0.102-0.037,0.223-0.111,0.363c-0.641,0.93-1.605,1.607-2.895,2.033
		c-0.613,0.148-1.203,0.223-1.77,0.223c-0.945,0-1.822-0.209-2.631-0.627C1.676,9.48,0.827,8.518,0.417,7.252
		C0.249,6.736,0.165,6.209,0.165,5.67C0.165,5.596,0.167,5.52,0.17,5.441z"/>
	<path fill="#FFFFFF" d="M14.508,0.643v5.115c0,0.246,0.135,0.369,0.404,0.369h2.549c0.289,0,0.434-0.148,0.434-0.445V0.572
		c0-0.246,0.131-0.369,0.393-0.369h0.99c0.305,0,0.457,0.133,0.457,0.398v9.668c0,0.309-0.131,0.463-0.393,0.463h-1.043
		c-0.27,0-0.404-0.137-0.404-0.41V8.014c0-0.293-0.115-0.439-0.346-0.439h-2.602c-0.293,0-0.439,0.174-0.439,0.521v2.197
		c0,0.293-0.143,0.439-0.428,0.439h-2.145c-0.262,0-0.393-0.154-0.393-0.463V0.607c0-0.27,0.143-0.404,0.428-0.404h2.092
		C14.36,0.203,14.508,0.35,14.508,0.643z"/>
	<path fill="#FFFFFF" d="M24.305,9.432c0.211,0.105,0.588,0.158,1.131,0.158c0.793-0.031,1.398-0.231,1.814-0.601
		s0.643-0.96,0.682-1.772V0.543c0-0.227,0.111-0.34,0.334-0.34h1.166c0.227,0,0.34,0.107,0.34,0.322v6.299
		c-0.055,1.398-0.432,2.438-1.131,3.117s-1.77,1.02-3.211,1.02c-1.059,0-2.041-0.24-2.947-0.721
		c-0.906-0.48-1.392-1.305-1.458-2.473v-7.16c0-0.27,0.143-0.404,0.428-0.404h2.091c0.297,0,0.445,0.146,0.445,0.439v8.244
		C23.988,9.148,24.094,9.33,24.305,9.432z"/>
	<path fill="#FFFFFF" d="M34.57,0.414l3.34,3.861c0.043,0.059,0.082,0.088,0.117,0.088s0.066-0.025,0.094-0.076l2.689-3.797
		c0.164-0.191,0.357-0.287,0.58-0.287h0.404c0.305,0,0.457,0.113,0.457,0.34v9.902c0,0.191-0.131,0.287-0.393,0.287h-1.102
		c-0.23,0-0.346-0.102-0.346-0.305V3.455c-0.004-0.062-0.025-0.094-0.064-0.094c-0.023,0-0.053,0.012-0.088,0.035l-2.836,4.008
		c-0.039,0.031-0.078,0.047-0.117,0.047c-0.051,0-0.102-0.021-0.152-0.064l-3.006-3.369c-0.031-0.023-0.057-0.035-0.076-0.035
		c-0.031,0-0.047,0.033-0.047,0.1v6.428c0,0.148-0.143,0.223-0.428,0.223h-2.145c-0.262,0-0.393-0.154-0.393-0.463V0.607
		c0-0.27,0.143-0.404,0.428-0.404h2.561C34.248,0.203,34.422,0.273,34.57,0.414z"/>
</g>
</svg>
